<?xml version="1.0" standalone="no"?><!DOCTYPE svg PUBLIC "-//W3C//DTD SVG 1.1//EN" "http://www.w3.org/Graphics/SVG/1.1/DTD/svg11.dtd"><svg t="1734950391503" class="icon" viewBox="0 0 1024 1024" version="1.1" xmlns="http://www.w3.org/2000/svg" p-id="7537" xmlns:xlink="http://www.w3.org/1999/xlink" width="200" height="200"><path d="M982.409846 198.380308c28.790154 9.609846 41.590154 19.219692 41.590154 28.829538v150.370462s-377.580308 166.439385-438.390154 198.419692c-60.809846 32.019692-92.829538 32.019692-140.8 9.609846C396.8 560.009846 0 390.380308 0 390.380308V243.2c0-9.609846 12.8-19.219692 38.4-32.019692C92.790154 188.809846 390.419692 73.649231 454.419692 51.2c63.960615-22.409846 86.370462-22.409846 137.570462-3.190154 57.619692 19.180308 339.219692 131.190154 390.419692 150.370462z m-537.6 624.009846c47.970462 22.409846 79.990154 22.409846 140.8-9.609846C646.419692 780.8 1024 617.590154 1024 617.590154V768c0 9.609846-12.8 22.409846-41.590154 35.209846-54.390154 28.790154-335.990154 147.180308-396.8 179.2-60.809846 31.980308-92.829538 31.980308-140.8 9.609846-48.009846-25.6-348.829538-147.219692-403.219692-172.819692C15.990154 806.4 0 793.6 0 783.990154v-153.6c0 3.190154 396.8 166.4 444.809846 192z m0-201.609846c47.970462 22.449231 79.990154 22.449231 140.8-9.570462S1024 415.980308 1024 415.980308v150.44923c0 9.570462-12.8 22.370462-41.590154 35.170462-54.390154 28.790154-335.990154 143.990154-396.8 176.009846-60.809846 31.980308-92.829538 31.980308-140.8 9.609846-48.009846-22.449231-348.829538-144.029538-403.219692-169.629538C15.990154 604.790154 0 595.219692 0 582.419692v-153.6c0 3.150769 396.8 169.590154 444.809846 191.960616z m291.170462-329.570462L892.849231 230.4l-140.8-54.390154-156.829539 60.770462 140.8 54.429538z m-204.8 102.4l73.64923-105.629538-236.819692 35.209846 163.209846 70.419692z m-73.570462-307.2l22.409846 41.590154-76.8 28.790154 102.4 9.609846 31.980308 54.390154 19.180308-48.009846 89.639384-12.8-70.419692-25.6 19.219692-44.780308-67.229538 22.409846-70.380308-25.6z m-28.829538 150.370462c0-28.750769-57.580308-47.970462-128-47.970462-70.380308 0-128 22.370462-128 47.970462 0 28.829538 57.619692 48.049231 128 48.04923 70.419692 0 128-19.219692 128-48.04923z" fill="#1967D2" p-id="7538"></path></svg>