<?xml version="1.0" standalone="no"?><!DOCTYPE svg PUBLIC "-//W3C//DTD SVG 1.1//EN" "http://www.w3.org/Graphics/SVG/1.1/DTD/svg11.dtd"><svg t="1734950370376" class="icon" viewBox="0 0 1024 1024" version="1.1" xmlns="http://www.w3.org/2000/svg" p-id="7247" xmlns:xlink="http://www.w3.org/1999/xlink" width="200" height="200"><path d="M982.4 198.4c28.8 9.6 41.6 19.2 41.6 28.8v150.4S646.4 544 585.6 576c-60.8 32-92.8 32-140.8 9.6C396.8 560 0 390.4 0 390.4V243.2c0-9.6 12.8-19.2 38.4-32 54.4-22.4 352-137.6 416-160s86.4-22.4 137.6-3.2c57.6 19.2 339.2 131.2 390.4 150.4zM444.8 822.4c48 22.4 80 22.4 140.8-9.6 60.8-32 438.4-195.2 438.4-195.2V768c0 9.6-12.8 22.4-41.6 35.2-54.4 28.8-336 147.2-396.8 179.2-60.8 32-92.8 32-140.8 9.6-48-25.6-348.8-147.2-403.2-172.8-25.6-12.8-41.6-25.6-41.6-35.2v-153.6c0 3.2 396.8 166.4 444.8 192z m0-201.6c48 22.4 80 22.4 140.8-9.6C646.4 579.2 1024 416 1024 416v150.4c0 9.6-12.8 22.4-41.6 35.2-54.4 28.8-336 144-396.8 176-60.8 32-92.8 32-140.8 9.6-48-22.4-348.8-144-403.2-169.6-25.6-12.8-41.6-22.4-41.6-35.2v-153.6c0 3.2 396.8 169.6 444.8 192zM736 291.2l156.8-60.8-140.8-54.4-156.8 60.8L736 291.2z m-204.8 102.4L604.8 288l-236.8 35.2 163.2 70.4z m-73.6-307.2L480 128l-76.8 28.8 102.4 9.6 32 54.4 19.2-48 89.6-12.8-70.4-25.6 19.2-44.8-67.2 22.4-70.4-25.6z m-28.8 150.4c0-28.8-57.6-48-128-48s-128 22.4-128 48c0 28.8 57.6 48 128 48s128-19.2 128-48z" p-id="7248"></path></svg>