<?xml version="1.0" standalone="no"?><!DOCTYPE svg PUBLIC "-//W3C//DTD SVG 1.1//EN" "http://www.w3.org/Graphics/SVG/1.1/DTD/svg11.dtd"><svg t="1734950383612" class="icon" viewBox="0 0 3790 1024" version="1.1" xmlns="http://www.w3.org/2000/svg" p-id="7390" xmlns:xlink="http://www.w3.org/1999/xlink" width="740.234375" height="200"><path d="M2.445373 33.134806V993.432836h157.359761V331.714866h5.379821L447.625552 993.432836h135.840478l282.440597-661.71797h5.379821V993.432836h157.359761V33.134806H844.387343l-325.479164 753.174925H513.528358L186.704239 33.134806zM1216.93994 33.134806V993.432836H1374.299701V33.134806zM1562.593433 33.134806V993.432836h157.359761V291.366209h5.379821L2205.48203 993.432836h153.324895V33.134806h-158.704716v692.65194h-5.379821l-474.769194-692.65194zM2547.100657 33.134806V993.432836h157.359761V33.134806zM3319.104955 14.305433c-147.945075 0-263.611224 47.073433-346.998448 143.910209-80.697313 91.456955-119.701015 209.813015-119.701014 356.413134 0 145.255164 39.003701 263.611224 119.701014 355.068179 83.387224 94.146866 199.053373 142.565254 346.998448 142.565254 146.600119 0 262.266269-47.073433 346.998448-141.220299 80.697313-90.112 121.04597-208.46806 121.04597-356.413134s-40.348657-267.64609-121.04597-357.758089C3581.371224 61.378866 3465.705075 14.305433 3319.104955 14.305433z m0 138.530388c99.526687 0 176.189134 30.93397 229.987344 95.491821 52.453254 64.557851 79.352358 153.324896 79.352358 266.301134 0 112.976239-26.899104 200.398328-79.352358 263.611224-53.798209 63.212896-130.460657 95.491821-229.987344 95.491821-99.526687 0-177.53409-33.623881-231.332298-99.526687-52.453254-64.557851-78.007403-150.634985-78.007403-259.576358 0-110.286328 25.554149-196.363463 78.007403-260.921313 55.143164-67.247761 131.805612-100.871642 231.332298-100.871642z" fill="#CA0B45" p-id="7391"></path></svg>